<svg version="1.1" xmlns="http://www.w3.org/2000/svg" xmlns:xlink="http://www.w3.org/1999/xlink" width="424" height="512" viewBox="0,0,424,512"><g transform="translate(-28,76)"><g data-paper-data="{&quot;isPaintingLayer&quot;:true}" fill-rule="nonzero" stroke="none" stroke-width="1" stroke-linecap="butt" stroke-linejoin="miter" stroke-miterlimit="10" stroke-dasharray="" stroke-dashoffset="0" style="mix-blend-mode: normal"><path d="M156,188c0,8.837 -7.164,16 -16,16h-24c-4.411,0 -8,3.589 -8,8v80h26.343c3.124,0 5.657,2.533 5.657,5.657c0,1.5 -0.596,2.939 -1.657,4l-32.686,32.686c-3.622,3.622 -8.535,5.657 -13.657,5.657c-5.122,0 -10.035,-2.035 -13.657,-5.657l-32.686,-32.686c-1.061,-1.061 -1.657,-2.5 -1.657,-4c0,-3.124 2.533,-5.657 5.657,-5.657h26.343v-80c0,-22.056 17.944,-40 40,-40h24c8.836,0 16,7.163 16,16z" fill="#5f78be"/><path d="M452,44v120c0,22.056 -17.944,40 -40,40h-24v26.343c0,3.124 -2.533,5.657 -5.657,5.657c-1.5,0 -2.939,-0.596 -4,-1.657l-32.686,-32.686c-3.622,-3.622 -5.657,-8.535 -5.657,-13.657c0,-5.122 2.035,-10.035 5.657,-13.657l32.686,-32.686c1.061,-1.061 2.5,-1.657 4,-1.657c3.124,0 5.657,2.533 5.657,5.657v26.343h24c4.411,0 8,-3.589 8,-8v-120c0,-4.411 -3.589,-8 -8,-8h-80c-8.837,0 -16,-7.164 -16,-16c0,-8.836 7.163,-16 16,-16h80c22.056,0 40,17.944 40,40z" fill="#5f78be"/><g><g><g fill="#faa51e"><path d="M148,20c0,-48.60106 39.39894,-88 88,-88c48.60106,0 88,39.39894 88,88c0,48.60106 -39.39894,88 -88,88c-48.60106,0 -88,-39.39894 -88,-88z"/></g><g fill="#f06423"><path d="M236,-60c-44.112,0 -80,35.888 -80,80c0,44.112 35.888,80 80,80c44.112,0 80,-35.888 80,-80c0,-44.112 -35.888,-80 -80,-80M332,20c0,53.019 -42.981,96 -96,96c-53.019,0 -96,-42.981 -96,-96c0,-53.019 42.981,-96 96,-96c53.019,0 96,42.981 96,96z"/></g></g><path d="M252,4v-5.404c0,-5.843 -4.754,-10.596 -10.597,-10.596h-10.807c-5.843,0 -10.596,4.753 -10.596,10.596c0,4.569 2.912,8.608 7.245,10.053l22.569,7.523c10.877,3.625 18.186,13.765 18.186,25.231c0,13.789 -10.549,25.158 -24,26.468v8.129c0,4.418 -3.582,8 -8,8c-4.418,0 -8,-3.582 -8,-8v-8.128c-13.451,-1.31 -24,-12.679 -24,-26.468v-5.404c0,-4.418 3.582,-8 8,-8c4.418,0 8,3.582 8,8v5.403c0,5.843 4.753,10.596 10.596,10.596h10.807c5.843,0 10.597,-4.753 10.597,-10.596c0,-4.568 -2.912,-8.608 -7.246,-10.053l-22.568,-7.523c-10.877,-3.625 -18.186,-13.765 -18.186,-25.231c0,-13.789 10.549,-25.158 24,-26.468v-8.128c0,-4.418 3.582,-8 8,-8c4.418,0 8,3.582 8,8v8.128c13.451,1.31 24,12.679 24,26.468v5.404c0,4.418 -3.582,8 -8,8c-4.418,0 -8,-3.582 -8,-8z" fill="#f06423"/></g><g><g fill="#fab991"><path d="M268,348c0,13.255 -10.745,24 -24,24h-49.372c-4.244,0 -8.313,1.685 -11.314,4.686l-19.314,19.314l-40,-40l17.941,-17.941c9.002,-9.002 21.211,-14.059 33.941,-14.059h68.118c13.255,0 24,10.745 24,24z"/></g><g fill="#f0915a"><path d="M359.314,335.313l-61.657,61.657c-4.532,4.533 -10.559,7.03 -16.97,7.03h-76.687l-16,16l-24,-24l19.314,-19.314c3.001,-3 7.071,-4.686 11.314,-4.686h82.745l59.314,-59.314c6.248,-6.249 16.379,-6.249 22.627,0c6.248,6.249 6.248,16.379 0,22.627z"/></g><g fill="#f0915a"><path d="M244,361.333h-5.333c-4.418,0 -8,-3.582 -8,-8v-10.667c0,-4.418 3.582,-8 8,-8h5.333c7.364,0 13.333,5.97 13.333,13.333c0,7.365 -5.969,13.334 -13.333,13.334z"/></g><g fill="#5f78be"><path d="M121.657,353.657l42.343,42.343l-40,40h-96l82.343,-82.343c3.124,-3.124 8.19,-3.124 11.314,0z"/></g><g fill="#46508c"><path d="M164,396l26.343,26.343c3.124,3.124 3.124,8.19 0,11.314l-2.343,2.343h-64z"/></g></g><g><g fill="#5f78be"><path d="M316,268h-160c-8.837,0 -16,-7.163 -16,-16v-104c0,-8.837 7.163,-16 16,-16h160c8.837,0 16,7.163 16,16v104c0,8.837 -7.164,16 -16,16z"/></g><g fill="#46508c"><path d="M332,244h-192v-96c0,-8.837 7.163,-16 16,-16h160c8.837,0 16,7.163 16,16z"/></g><g fill="#46508c"><path d="M220,268h32v24h-32z"/></g><g fill="#5f78be"><path d="M268,308h-64c0,-8.837 7.163,-16 16,-16h32c8.836,0 16,7.163 16,16z"/></g></g><path d="M196,188c0,-22.09139 17.90861,-40 40,-40c22.09139,0 40,17.90861 40,40c0,22.09139 -17.90861,40 -40,40c-22.09139,0 -40,-17.90861 -40,-40z" fill="#5f78be"/><path d="M280,188c0,24.262 -19.738,44 -44,44c-24.262,0 -44,-19.738 -44,-44c0,-24.262 19.738,-44 44,-44c24.262,0 44,19.738 44,44zM247.477,153.887c3.551,7.695 5.431,18.913 5.791,30.113h18.504c-1.563,-14.075 -11.273,-25.719 -24.295,-30.113zM245.265,192h-18.53c0.697,20.818 6.715,32 9.265,32c2.55,0 8.567,-11.182 9.265,-32zM245.265,184c-0.698,-20.818 -6.715,-32 -9.265,-32c-2.55,0 -8.567,11.182 -9.265,32zM200.228,184h18.503c0.36,-11.2 2.24,-22.418 5.791,-30.113c-13.022,4.394 -22.731,16.038 -24.294,30.113zM224.522,222.113c-3.551,-7.695 -5.431,-18.913 -5.791,-30.113h-18.503c1.563,14.075 11.272,25.719 24.294,30.113zM271.773,192h-18.504c-0.36,11.2 -2.24,22.418 -5.791,30.113c13.021,-4.394 22.731,-16.038 24.295,-30.113z" fill="#73cddc"/></g></g></svg>